<?xml version="1.0" encoding="utf-8"?>
<!-- Generator: Adobe Illustrator 25.0.1, SVG Export Plug-In . SVG Version: 6.00 Build 0)  -->
<svg version="1.0" id="katman_1" xmlns="http://www.w3.org/2000/svg" xmlns:xlink="http://www.w3.org/1999/xlink" x="0px" y="0px"
	 viewBox="0 0 960 614" style="enable-background:new 0 0 960 614;" xml:space="preserve">
<style type="text/css">
	.st0{fill-rule:evenodd;clip-rule:evenodd;fill:#DA3940;}
</style>
<path class="st0" d="M379.8,323l-4.7,15.8h-47.6v-2.2l6.2-4.2v-50.7l-6.2-4.2V275h49.8l1.1,1.1l-3.1,14.3h-2.2c-2-8.8-5-10-19.5-10
	h-7v23.3l22.9-1.4l0.5,0.4l-2.1,7.5l-0.6,0.2l-20.7-2v25h6.6c11.8,0,18-1.8,24.4-11.2L379.8,323z M870.1,277.3l-6.2,4.2v56.4
	l-0.8,0.8h-9.8l-36.2-50v43.6l7.3,4.2v2.2h-20v-2.2l6.2-4.2v-50.9l-7.1-4V275h19.1l34.8,48.3v-41.8l-7.3-4.2V275h20V277.3z
	 M766,332.3l7.3,4.2v2.2H747v-2.2l6.2-4.2v-50.7l-6.2-4.2V275h26.7c18.6,0,28.2,6.4,28.2,18.6c0,14-13.5,23.5-33.7,23.5
	c-0.9,0-1.7,0-2.2-0.1L766,332.3z M742,277.3l-6.3,4.1l-20.8,57.3h-12l-22.1-57l-6.5-4.4V275h26.1v2.2l-6.4,4.3l18,46.2h0.7
	l15.2-46.3l-6.5-4.2V275H742V277.3z M766,311.7c14.2,0.4,22.7-6.4,22.7-17.8c0-9.4-4.8-14.2-14.6-14.2c-2.7,0-5.9,0.7-8.2,1.8V311.7
	z M497.6,312.3c0,15.9-10.6,27.2-25.5,27.2c-4.3,0-8-1.1-11.5-2.6v15.6l7.3,4.2v2.2h-25.8v-2.2l6.3-4.2v-55.4l-6.3-3.7v-2.2
	l16.7-3.3l1.8,1.2v7.1c3.9-5.1,10.2-8.2,16.7-8.2C489.3,287.9,497.6,298.4,497.6,312.3z M538.3,299h-2.2c-1.6-1-3.3-1.5-5.1-1.5
	c-3.7,0-7.3,1.4-10.4,4.1v30.6l7.5,4.2v2.2H502v-2.2l6.3-4.2v-35.2l-6.3-3.7v-2.2l16.8-3.3l1.8,1.2v8c3.2-5.3,8.9-9,14.6-9
	c2.6,0,4.9,0.7,6.7,2L538.3,299z M576.3,313c-6.8,0-14.4-0.2-22.6-0.5c1.1,11.3,7.3,17.9,17.4,17.9c6.1,0,10-1.5,13.3-4.3l2.1,1.6
	c-3.3,8-10.8,12.3-20.5,12.3c-14.9,0-24.9-10.2-24.9-25.8c0-14.9,9.9-26.4,25-26.4c7,0,12.2,2.2,16,6.6c3.7,4.3,5.6,10,5.5,17
	l-1.5,1.5C584,313,580.7,313,576.3,313L576.3,313z M596.3,324.4h2.1c3.9,6.5,9.7,10.2,14.7,10.2c4.4,0,7.2-2.3,7.2-6
	c0-4.1-2.4-6.4-8.5-8.7l-4.5-1.7c-8.6-3.2-13.7-8.4-13.7-15.2c0-8.4,7.9-14.9,19.6-14.9c6.8,0,13.2,1.6,18,4.4l-4.9,8.3h-2
	c-3.3-5.2-7.5-7.8-12.3-7.8c-4.3,0-7.2,2.4-7.2,5.8c0,3.6,2.6,5.9,10.4,8.9l5.2,2c7.9,3,11.3,7.8,11.3,14c0,9.7-7.8,15.8-19.6,15.8
	c-7.3,0-14.7-1.9-20-5.3L596.3,324.4z M640.7,324.4h2.1c3.9,6.5,9.7,10.2,14.7,10.2c4.4,0,7.2-2.3,7.2-6c0-4.1-2.4-6.4-8.5-8.7
	l-4.5-1.7c-8.6-3.2-13.7-8.4-13.7-15.2c0-8.4,7.9-14.9,19.6-14.9c6.8,0,13.2,1.6,18,4.4l-4.9,8.3h-2c-3.3-5.2-7.5-7.8-12.3-7.8
	c-4.3,0-7.2,2.4-7.2,5.8c0,3.6,2.6,5.9,10.4,8.9l5.2,2c7.9,3,11.3,7.8,11.3,14c0,9.7-7.8,15.8-19.6,15.8c-7.3,0-14.7-1.9-20-5.3
	L640.7,324.4z M416.7,313.2l14.9,19.1l5.6,4.2v2.2h-25.2v-2.2l5.3-3.9l-10.1-13.7l-9.7,13.7l5.9,3.9v2.2h-20v-2.2l6.2-4.1l14.5-17.8
	l-14.8-18.8l-5.7-4.4v-2.2h25.1v2.2l-5.2,3.9l10,13.6l9.7-13.6l-5.9-3.9v-2.2h20v2.2l-6.2,4.1L416.7,313.2z M574.7,306.4
	c-1.1-8.9-5.3-13.1-10.8-13.1c-6.1,0-10.1,6-10.4,14.5L574.7,306.4z M485.4,317.5c0-11.2-5.5-20.5-14.3-20.5
	c-3.6,0-7.2,1.2-10.6,3.7v26.6c2.8,4.3,7.2,6.5,12.3,6.5C480.6,333.8,485.4,327.7,485.4,317.5z M137.4,381.8
	c-20.9,0-34.3-11.8-34.3-28.1c0-5.4,1.6-12,7.8-25.3H89l20.1-43h140c3.2,0,5.4-2.4,5.4-5.2c0-2.8-2.2-5.2-5.4-5.2H135.8l10-21.3
	c6.2-13.1,19.5-21.7,34.1-21.7h47.6c27.5,0,47.8,18.9,47.8,43.6c0,29.3-26.9,52.8-58,52.8h-92c-2.8,5.8,0.4,10.4,7.2,10.4h73.3
	c12.2,0,21.5,8.6,21.5,19.5c0,12.6-12.1,23.5-25.9,23.5H137.4z"/>
</svg>
